<svg width="125" height="27" viewBox="0 0 125 27" fill="none" xmlns="http://www.w3.org/2000/svg">
<path d="M31.4579 21.0615L31.4576 21.0612L31.4491 21.07C30.6732 21.8643 29.6445 22.2978 28.5422 22.2978C26.2791 22.2978 24.4214 20.4256 24.4214 18.1C24.4214 15.7745 26.2791 13.9023 28.5422 13.9023C29.6428 13.9023 30.672 14.3345 31.4999 15.1822L31.4997 15.1824L31.5089 15.1907L34.7255 18.1002L31.4579 21.0615ZM42.4015 15.1386L42.4017 15.1388L42.4103 15.1301C43.1861 14.3358 44.2148 13.9023 45.3172 13.9023C47.5803 13.9023 49.438 15.7745 49.438 18.1C49.438 20.4256 47.5803 22.2978 45.3172 22.2978C44.229 22.2978 43.1872 21.8654 42.3594 21.0179L42.3597 21.0176L42.3505 21.0093L39.1339 18.0999L42.4015 15.1386ZM52.3797 18.1C52.3797 14.0892 49.2177 10.9 45.3172 10.9C43.4364 10.9 41.658 11.648 40.3873 12.9467L36.9295 16.0865L33.5355 13.0117C32.2025 11.6491 30.4245 10.9 28.5422 10.9C24.6407 10.9 21.4797 14.1423 21.4797 18.1C21.4797 22.0578 24.6407 25.3 28.5422 25.3C30.423 25.3 32.2013 24.5521 33.4721 23.2534L36.9298 20.1135L40.3242 23.1887C41.6569 24.5378 43.422 25.287 45.3172 25.287C49.2182 25.287 52.3797 22.0583 52.3797 18.1Z" fill="#404040" stroke="#404040" stroke-width="0.4"/>
<path d="M24.5 12C26.5717 10.552 23.4297 16.1247 23.4297 16.85C23.4297 18.3647 20.384 22.1227 18.976 23.552C17.568 24.96 15.8507 25.6747 13.824 25.696C12.3947 25.696 10.7413 25.1307 8.864 24C7.52 25.4294 5.84533 26.144 3.84 26.144C2.51733 26.144 1.54667 25.8134 0.928 25.152C0.309333 24.4907 0 23.616 0 22.528C0 21.44 0.394667 20.6294 1.184 20.096C1.99467 19.5414 3.01867 19.264 4.256 19.264C4.91733 19.264 5.536 19.296 6.112 19.36C6.112 16.7574 6.4 14.2187 6.976 11.744C6.272 11.3814 5.664 10.976 5.152 10.528C4.66133 10.08 4.416 9.72802 4.416 9.47202C4.416 8.78935 4.56533 8.44802 4.864 8.44802C5.29067 8.44802 5.728 8.57602 6.176 8.83202C6.64533 9.06669 7.14667 9.24802 7.68 9.37602C9.00267 5.55735 10.816 3.09335 13.12 1.98402C13.9307 1.60002 14.784 1.40802 15.68 1.40802C19.0507 1.40802 20.736 2.82669 20.736 5.66402C20.736 7.28535 20.128 8.68269 18.912 9.85602C17.2267 11.4774 14.6667 12.3307 11.232 12.416C10.9973 14.208 10.88 16.3307 10.88 18.784C10.88 19.3814 10.8053 20.0534 10.656 20.8C11.4027 21.184 12.128 21.536 12.832 21.856C13.536 22.176 14.4 22.336 15.424 22.336C15.9573 22.336 16.48 22.112 16.992 21.664C17.5253 21.216 18.016 20.7254 18.464 20.192C18.9333 19.6587 19.7769 18.3465 20.1396 17.8985C20.5285 17.4928 21.6591 15.1304 22.21 14.3632C22.6873 13.6985 22.5698 14.0004 22.5 14.5C22.2635 16.1923 24.239 12.1419 24.5 12ZM15.616 4.54402C13.824 4.54402 12.5227 6.25069 11.712 9.66402C13.248 9.53602 14.5387 9.10935 15.584 8.38402C16.6507 7.63735 17.184 6.89069 17.184 6.14402C17.184 5.07735 16.6613 4.54402 15.616 4.54402ZM3.104 22.752C3.12533 23.3494 3.54133 23.648 4.352 23.648C5.16267 23.648 5.67467 23.1787 5.888 22.24C5.29067 21.9414 4.8 21.792 4.416 21.792C3.56267 21.792 3.12533 22.112 3.104 22.752Z" fill="#404040"/>
<path d="M70.7853 15.872C70.7853 15.168 70.38 14.816 69.5693 14.816C69.0147 14.816 68.396 15.36 67.7134 16.448C67.0307 17.5147 66.54 18.6667 66.2413 19.904V19.968C66.2413 20.6933 66.348 21.44 66.5613 22.208C66.796 22.976 66.9133 23.5093 66.9133 23.808C66.9133 24.5333 66.0067 25.248 64.1933 25.952C63.916 26.0587 63.6707 26.112 63.4573 26.112C62.924 26.112 62.5507 25.8347 62.3373 25.28C62.1453 24.7253 62.0493 23.9787 62.0493 23.04C62.0493 22.08 62.0707 21.184 62.1133 20.352C62.1773 19.4987 62.2307 18.72 62.2733 18.016C62.3373 17.2907 62.3907 16.6613 62.4333 16.128C62.4973 15.5733 62.5293 15.1253 62.5293 14.784C62.5293 14.0587 62.1987 13.696 61.5373 13.696C60.876 13.696 60.108 14.4747 59.2333 16.032C58.3587 17.568 57.9213 18.7947 57.9213 19.712C57.9213 20.608 58.028 21.44 58.2413 22.208C58.476 22.976 58.5933 23.5093 58.5933 23.808C58.5933 24.5333 57.6867 25.248 55.8733 25.952C55.596 26.0587 55.3507 26.112 55.1373 26.112C54.604 26.112 54.3841 25.8574 54.0173 25.28C53.3377 24.2101 52.6602 23.2996 52.1792 22.1C51.0058 19.1734 49.4295 14.6 52.4297 16.85C52.6797 17.35 52.9297 20.35 53.9292 20.6C53.9292 17.5707 53.8467 17.504 54.0813 16.16C54.4013 14.176 55.1267 12.2987 56.2573 10.528C56.6413 9.93067 57.0573 9.632 57.5053 9.632C58.2093 9.632 58.86 10.208 59.4573 11.36C59.628 11.6587 59.756 11.936 59.8413 12.192C60.8653 10.912 62.0707 10.272 63.4573 10.272C64.3747 10.272 65.196 10.5813 65.9213 11.2C66.6467 11.7973 67.0093 12.5547 67.0093 13.472V13.824C68.3107 12.2027 69.9 11.392 71.7773 11.392C72.9293 11.392 73.804 11.6907 74.4013 12.288C74.9987 12.8853 75.2973 13.6213 75.2973 14.496C75.2973 15.3707 75.2333 16.16 75.1053 16.864C74.9773 17.568 74.828 18.2293 74.6573 18.848C74.508 19.4667 74.3693 20.0213 74.2413 20.512C74.1133 20.9813 74.0493 21.3547 74.0493 21.632C74.0493 21.888 74.1347 22.016 74.3053 22.016C74.6253 22.016 75.02 21.8133 75.4893 21.408C75.9587 21.0027 76.428 20.5653 76.8973 20.096C77.3667 19.6053 77.7933 19.1573 78.1773 18.752C78.5827 18.3467 78.86 18.144 79.0093 18.144C79.308 18.144 79.4573 18.5067 79.4573 19.232C79.4573 20.7253 78.7 22.176 77.1853 23.584C75.692 24.992 74.092 25.696 72.3853 25.696C70.8493 25.696 70.0813 24.2987 70.0813 21.504C70.0813 20.8 70.1987 19.8293 70.4333 18.592C70.668 17.3547 70.7853 16.448 70.7853 15.872Z" fill="#404040"/>
<path d="M81.6831 25.696C79.5498 25.696 78.4831 23.7013 78.4831 19.712C78.4831 17.536 78.7498 15.5627 79.2831 13.792C80.1151 11.0613 81.0538 9.696 82.0991 9.696C82.7178 9.696 83.2084 10.112 83.5711 10.944C83.8697 11.584 84.0084 12.2133 83.9871 12.832C83.9871 13.6853 83.7311 15.1893 83.2191 17.344C82.7284 19.2213 82.4831 20.384 82.4831 20.832C82.4831 21.28 82.5898 21.5893 82.8031 21.76C83.0378 21.9307 83.3044 22.016 83.6031 22.016C83.9231 22.016 84.3177 21.8133 84.7871 21.408C85.2564 21.0027 85.7257 20.5653 86.1951 20.096C86.6644 19.6053 87.0911 19.1573 87.4751 18.752C87.8804 18.3467 88.1577 18.144 88.3071 18.144C88.6057 18.144 88.7551 18.5067 88.7551 19.232C88.7551 20.7253 87.9977 22.1867 86.4831 23.616C84.9897 25.024 83.3898 25.7173 81.6831 25.696ZM82.9951 7.104C82.4191 6.25067 82.1311 5.33333 82.1311 4.352C82.1311 3.37067 82.2804 2.56 82.5791 1.92C82.8991 1.25867 83.1977 0.778666 83.4751 0.48C83.7524 0.16 84.0724 0 84.4351 0C85.0324 0 85.5764 0.448 86.0671 1.344C86.5577 2.21867 86.8031 2.95467 86.8031 3.552C86.8031 4.66133 86.4084 5.536 85.6191 6.176C84.8511 6.79467 83.9764 7.104 82.9951 7.104Z" fill="#404040"/>
<path d="M91.4116 9.632C92.1796 9.632 92.9049 10.368 93.5876 11.84C94.5902 10.7947 95.8276 10.272 97.2996 10.272C98.7929 10.272 99.9129 10.6027 100.66 11.264C101.406 11.904 101.78 12.8213 101.78 14.016C101.78 15.1893 101.62 16.384 101.3 17.6C101.001 18.816 100.777 19.6907 100.628 20.224C100.5 20.736 100.436 21.1627 100.436 21.504C100.436 21.8453 100.553 22.016 100.788 22.016C101.108 22.016 101.502 21.8133 101.972 21.408C102.441 21.0027 102.91 20.5653 103.38 20.096C103.849 19.6053 104.276 19.1573 104.66 18.752C105.065 18.3467 105.342 18.144 105.492 18.144C105.79 18.144 105.94 18.5067 105.94 19.232C105.94 20.7253 105.204 22.1653 103.732 23.552C101.257 25.0027 99.6782 25.728 98.9956 25.728C98.9316 25.728 98.8889 25.7173 98.8676 25.696C97.1609 25.696 96.3076 24.3307 96.3076 21.6C96.3076 20.4267 96.4142 19.3493 96.6276 18.368C96.8622 17.3867 97.0329 16.672 97.1396 16.224C97.2462 15.776 97.2996 15.3173 97.2996 14.848C97.2996 14.08 96.8516 13.696 95.9556 13.696C95.0809 13.696 94.2382 14.3573 93.4276 15.68C92.6382 16.9813 92.1049 18.336 91.8276 19.744V19.968C91.8276 20.6933 91.9342 21.44 92.1476 22.208C92.3822 22.976 92.4996 23.5093 92.4996 23.808C92.4996 24.5333 91.5929 25.248 89.7796 25.952C89.5022 26.0587 89.2569 26.112 89.0436 26.112C88.5102 26.112 88.1369 25.8347 87.9236 25.28C87.7316 24.7253 87.6356 23.8613 87.6356 22.688C87.6356 19.6587 87.7529 17.472 87.9876 16.128C88.3076 14.1227 89.0329 12.256 90.1636 10.528C90.5476 9.93067 90.9636 9.632 91.4116 9.632Z" fill="#404040"/>
<path d="M123.991 18.048C124.375 18.048 124.567 18.5387 124.567 19.52C124.567 20.0533 124.343 20.704 123.895 21.472C123.447 22.2187 122.86 22.912 122.135 23.552C121.431 24.1707 120.642 24.6827 119.767 25.088C118.892 25.4933 118.039 25.696 117.207 25.696C116.076 25.696 115.319 24.704 114.935 22.72C114.38 23.6373 113.655 24.3947 112.759 24.992C111.863 25.568 110.658 25.856 109.143 25.856C107.65 25.856 106.444 25.3867 105.527 24.448C104.61 23.5093 104.162 22.368 104.183 21.024C104.183 17.3973 105.388 14.5387 107.799 12.448C108.823 11.5733 109.772 10.9973 110.647 10.72C111.543 10.4427 112.482 10.304 113.463 10.304C114.444 10.304 115.244 10.4747 115.863 10.816C116.162 10.1973 116.503 9.888 116.887 9.888C117.634 9.888 118.338 10.2187 118.999 10.88C119.682 11.52 120.023 12.128 120.023 12.704C119.724 13.408 119.287 14.2507 118.711 15.232C118.54 16.2133 118.455 17.5893 118.455 19.36C118.455 21.1307 118.679 22.016 119.127 22.016C119.682 22.016 121.026 20.9067 123.159 18.688C123.543 18.2613 123.82 18.048 123.991 18.048ZM108.887 19.968C108.887 21.6107 109.495 22.432 110.711 22.432C112.012 22.4107 113.09 21.7173 113.943 20.352C114.242 19.8827 114.487 19.3067 114.679 18.624C114.679 16.2347 114.892 14.1867 115.319 12.48C113.591 12.8213 112.087 13.6533 110.807 14.976C109.527 16.2987 108.887 17.9627 108.887 19.968Z" fill="#404040"/>
</svg>
