<svg width="126" height="28" viewBox="0 0 126 28" fill="none" xmlns="http://www.w3.org/2000/svg">
<mask id="path-1-outside-1_572_1794" maskUnits="userSpaceOnUse" x="0" y="0" width="126" height="28" fill="black">
<rect fill="white" width="126" height="28"/>
<path d="M46.3172 12.1C50.1043 12.1 53.1797 15.1967 53.1797 19.1C53.1797 22.9513 50.1043 26.087 46.3172 26.087C44.4745 26.087 42.7589 25.3584 41.4626 24.0442L37.9297 20.8435L34.3332 24.1093C33.1005 25.3714 31.3722 26.1 29.5422 26.1C25.7551 26.1 22.6797 22.9513 22.6797 19.1C22.6797 15.2487 25.7551 12.1 29.5422 12.1C31.3722 12.1 33.1005 12.8286 34.3968 14.1558L37.9297 17.3565L41.5261 14.0907C42.7589 12.8286 44.4872 12.1 46.3172 12.1ZM32.5922 22.2097L36.0234 19.1L32.643 16.0424C31.7789 15.1576 30.6986 14.7022 29.5422 14.7022C27.1657 14.7022 25.2214 16.6669 25.2214 19.1C25.2214 21.5331 27.1657 23.4978 29.5422 23.4978C30.6986 23.4978 31.7789 23.0424 32.5922 22.2097ZM43.2672 15.9903L39.8359 19.1L43.2164 22.1576C44.0805 23.0424 45.1734 23.4978 46.3172 23.4978C48.6936 23.4978 50.638 21.5331 50.638 19.1C50.638 16.6669 48.6936 14.7022 46.3172 14.7022C45.1607 14.7022 44.0805 15.1576 43.2672 15.9903Z"/>
<path d="M26.5 13.416C28.5717 11.968 24.4297 17.1247 24.4297 17.85C24.4297 19.3647 21.384 23.1227 19.976 24.552C18.568 25.96 16.8507 26.6747 14.824 26.696C13.3947 26.696 11.7413 26.1307 9.864 25C8.52 26.4293 6.84533 27.144 4.84 27.144C3.51733 27.144 2.54667 26.8133 1.928 26.152C1.30933 25.4907 1 24.616 1 23.528C1 22.44 1.39467 21.6293 2.184 21.096C2.99467 20.5413 4.01867 20.264 5.256 20.264C5.91733 20.264 6.536 20.296 7.112 20.36C7.112 17.7573 7.4 15.2187 7.976 12.744C7.272 12.3813 6.664 11.976 6.152 11.528C5.66133 11.08 5.416 10.728 5.416 10.472C5.416 9.78933 5.56533 9.448 5.864 9.448C6.29067 9.448 6.728 9.576 7.176 9.832C7.64533 10.0667 8.14667 10.248 8.68 10.376C10.0027 6.55733 11.816 4.09333 14.12 2.984C14.9307 2.6 15.784 2.408 16.68 2.408C20.0507 2.408 21.736 3.82667 21.736 6.664C21.736 8.28533 21.128 9.68267 19.912 10.856C18.2267 12.4773 15.6667 13.3307 12.232 13.416C11.9973 15.208 11.88 17.3307 11.88 19.784C11.88 20.3813 11.8053 21.0533 11.656 21.8C12.4027 22.184 13.128 22.536 13.832 22.856C14.536 23.176 15.4 23.336 16.424 23.336C16.9573 23.336 17.48 23.112 17.992 22.664C18.5253 22.216 19.016 21.7253 19.464 21.192C19.9333 20.6587 20.7769 19.3465 21.1396 18.8985C21.5285 18.4928 23.959 15.1147 24.5099 14.3475C24.9873 13.6828 27.0698 12.2444 27 12.744C26.7635 14.4363 26.239 13.5579 26.5 13.416ZM16.616 5.544C14.824 5.544 13.5227 7.25067 12.712 10.664C14.248 10.536 15.5387 10.1093 16.584 9.384C17.6507 8.63733 18.184 7.89067 18.184 7.144C18.184 6.07733 17.6613 5.544 16.616 5.544ZM4.104 23.752C4.12533 24.3493 4.54133 24.648 5.352 24.648C6.16267 24.648 6.67467 24.1787 6.888 23.24C6.29067 22.9413 5.8 22.792 5.416 22.792C4.56267 22.792 4.12533 23.112 4.104 23.752Z"/>
<path d="M71.7854 16.872C71.7854 16.168 71.3801 15.816 70.5694 15.816C70.0147 15.816 69.3961 16.36 68.7134 17.448C68.0307 18.5147 67.5401 19.6667 67.2414 20.904V20.968C67.2414 21.6933 67.3481 22.44 67.5614 23.208C67.7961 23.976 67.9134 24.5093 67.9134 24.808C67.9134 25.5333 67.0067 26.248 65.1934 26.952C64.9161 27.0587 64.6707 27.112 64.4574 27.112C63.9241 27.112 63.5507 26.8347 63.3374 26.28C63.1454 25.7253 63.0494 24.9787 63.0494 24.04C63.0494 23.08 63.0707 22.184 63.1134 21.352C63.1774 20.4987 63.2307 19.72 63.2734 19.016C63.3374 18.2907 63.3907 17.6613 63.4334 17.128C63.4974 16.5733 63.5294 16.1253 63.5294 15.784C63.5294 15.0587 63.1987 14.696 62.5374 14.696C61.8761 14.696 61.1081 15.4747 60.2334 17.032C59.3587 18.568 58.9214 19.7947 58.9214 20.712C58.9214 21.608 59.0281 22.44 59.2414 23.208C59.4761 23.976 59.5934 24.5093 59.5934 24.808C59.5934 25.5333 58.6867 26.248 56.8734 26.952C56.5961 27.0587 56.3507 27.112 56.1374 27.112C55.6041 27.112 55.3842 26.8574 55.0174 26.28C54.3378 25.2101 53.6603 24.2996 53.1793 23.1C52.0059 20.1734 49.829 14.622 52.8292 16.872C53.0792 17.372 53.9297 21.35 54.9292 21.6C54.9292 18.5707 54.8467 18.504 55.0814 17.16C55.4014 15.176 56.1267 13.2987 57.2574 11.528C57.6414 10.9307 58.0574 10.632 58.5054 10.632C59.2094 10.632 59.8601 11.208 60.4574 12.36C60.6281 12.6587 60.7561 12.936 60.8414 13.192C61.8654 11.912 63.0707 11.272 64.4574 11.272C65.3747 11.272 66.1961 11.5813 66.9214 12.2C67.6467 12.7973 68.0094 13.5547 68.0094 14.472V14.824C69.3107 13.2027 70.9001 12.392 72.7774 12.392C73.9294 12.392 74.8041 12.6907 75.4014 13.288C75.9987 13.8853 76.2974 14.6213 76.2974 15.496C76.2974 16.3707 76.2334 17.16 76.1054 17.864C75.9774 18.568 75.8281 19.2293 75.6574 19.848C75.5081 20.4667 75.3694 21.0213 75.2414 21.512C75.1134 21.9813 75.0494 22.3547 75.0494 22.632C75.0494 22.888 75.1347 23.016 75.3054 23.016C75.6254 23.016 76.0201 22.8133 76.4894 22.408C76.9587 22.0027 77.4281 21.5653 77.8974 21.096C78.3667 20.6053 78.7934 20.1573 79.1774 19.752C79.5827 19.3467 79.8601 19.144 80.0094 19.144C80.3081 19.144 80.4574 19.5067 80.4574 20.232C80.4574 21.7253 79.7001 23.176 78.1854 24.584C76.6921 25.992 75.0921 26.696 73.3854 26.696C71.8494 26.696 71.0814 25.2987 71.0814 22.504C71.0814 21.8 71.1987 20.8293 71.4334 19.592C71.6681 18.3547 71.7854 17.448 71.7854 16.872Z"/>
<path d="M82.6832 26.696C80.5498 26.696 79.4832 24.7013 79.4832 20.712C79.4832 18.536 79.7498 16.5627 80.2832 14.792C81.1152 12.0613 82.0538 10.696 83.0992 10.696C83.7178 10.696 84.2085 11.112 84.5711 11.944C84.8698 12.584 85.0085 13.2133 84.9871 13.832C84.9871 14.6853 84.7311 16.1893 84.2191 18.344C83.7285 20.2213 83.4832 21.384 83.4832 21.832C83.4832 22.28 83.5898 22.5893 83.8032 22.76C84.0378 22.9307 84.3045 23.016 84.6031 23.016C84.9231 23.016 85.3178 22.8133 85.7871 22.408C86.2565 22.0027 86.7258 21.5653 87.1951 21.096C87.6645 20.6053 88.0911 20.1573 88.4751 19.752C88.8805 19.3467 89.1578 19.144 89.3071 19.144C89.6058 19.144 89.7551 19.5067 89.7551 20.232C89.7551 21.7253 88.9978 23.1867 87.4831 24.616C85.9898 26.024 84.3898 26.7173 82.6832 26.696ZM83.9951 8.104C83.4191 7.25067 83.1312 6.33333 83.1312 5.352C83.1312 4.37067 83.2805 3.56 83.5792 2.92C83.8992 2.25867 84.1978 1.77867 84.4751 1.48C84.7525 1.16 85.0725 1 85.4351 1C86.0325 1 86.5765 1.448 87.0671 2.344C87.5578 3.21867 87.8031 3.95467 87.8031 4.552C87.8031 5.66133 87.4085 6.536 86.6191 7.176C85.8511 7.79467 84.9765 8.104 83.9951 8.104Z"/>
<path d="M92.4116 10.632C93.1796 10.632 93.905 11.368 94.5876 12.84C95.5903 11.7947 96.8276 11.272 98.2996 11.272C99.793 11.272 100.913 11.6027 101.66 12.264C102.406 12.904 102.78 13.8213 102.78 15.016C102.78 16.1893 102.62 17.384 102.3 18.6C102.001 19.816 101.777 20.6907 101.628 21.224C101.5 21.736 101.436 22.1627 101.436 22.504C101.436 22.8453 101.553 23.016 101.788 23.016C102.108 23.016 102.502 22.8133 102.972 22.408C103.441 22.0027 103.91 21.5653 104.38 21.096C104.849 20.6053 105.276 20.1573 105.66 19.752C106.065 19.3467 106.342 19.144 106.492 19.144C106.79 19.144 106.94 19.5067 106.94 20.232C106.94 21.7253 106.204 23.1653 104.732 24.552C102.257 26.0027 100.678 26.728 99.9956 26.728C99.9316 26.728 99.889 26.7173 99.8676 26.696C98.161 26.696 97.3076 25.3307 97.3076 22.6C97.3076 21.4267 97.4143 20.3493 97.6276 19.368C97.8623 18.3867 98.033 17.672 98.1396 17.224C98.2463 16.776 98.2996 16.3173 98.2996 15.848C98.2996 15.08 97.8516 14.696 96.9556 14.696C96.081 14.696 95.2383 15.3573 94.4276 16.68C93.6383 17.9813 93.105 19.336 92.8276 20.744V20.968C92.8276 21.6933 92.9343 22.44 93.1476 23.208C93.3823 23.976 93.4996 24.5093 93.4996 24.808C93.4996 25.5333 92.593 26.248 90.7796 26.952C90.5023 27.0587 90.257 27.112 90.0436 27.112C89.5103 27.112 89.137 26.8347 88.9236 26.28C88.7316 25.7253 88.6356 24.8613 88.6356 23.688C88.6356 20.6587 88.753 18.472 88.9876 17.128C89.3076 15.1227 90.033 13.256 91.1636 11.528C91.5476 10.9307 91.9636 10.632 92.4116 10.632Z"/>
<path d="M124.991 19.048C125.375 19.048 125.567 19.5387 125.567 20.52C125.567 21.0533 125.343 21.704 124.895 22.472C124.447 23.2187 123.861 23.912 123.135 24.552C122.431 25.1707 121.642 25.6827 120.767 26.088C119.893 26.4933 119.039 26.696 118.207 26.696C117.077 26.696 116.319 25.704 115.935 23.72C115.38 24.6373 114.655 25.3947 113.759 25.992C112.863 26.568 111.658 26.856 110.143 26.856C108.65 26.856 107.444 26.3867 106.527 25.448C105.61 24.5093 105.162 23.368 105.183 22.024C105.183 18.3973 106.388 15.5387 108.799 13.448C109.823 12.5733 110.772 11.9973 111.647 11.72C112.543 11.4427 113.482 11.304 114.463 11.304C115.444 11.304 116.245 11.4747 116.863 11.816C117.162 11.1973 117.503 10.888 117.887 10.888C118.634 10.888 119.338 11.2187 119.999 11.88C120.682 12.52 121.023 13.128 121.023 13.704C120.725 14.408 120.287 15.2507 119.711 16.232C119.541 17.2133 119.455 18.5893 119.455 20.36C119.455 22.1307 119.679 23.016 120.127 23.016C120.682 23.016 122.026 21.9067 124.159 19.688C124.543 19.2613 124.821 19.048 124.991 19.048ZM109.887 20.968C109.887 22.6107 110.495 23.432 111.711 23.432C113.012 23.4107 114.09 22.7173 114.943 21.352C115.242 20.8827 115.487 20.3067 115.679 19.624C115.679 17.2347 115.893 15.1867 116.319 13.48C114.591 13.8213 113.087 14.6533 111.807 15.976C110.527 17.2987 109.887 18.9627 109.887 20.968Z"/>
</mask>
<path d="M46.3172 12.1C50.1043 12.1 53.1797 15.1967 53.1797 19.1C53.1797 22.9513 50.1043 26.087 46.3172 26.087C44.4745 26.087 42.7589 25.3584 41.4626 24.0442L37.9297 20.8435L34.3332 24.1093C33.1005 25.3714 31.3722 26.1 29.5422 26.1C25.7551 26.1 22.6797 22.9513 22.6797 19.1C22.6797 15.2487 25.7551 12.1 29.5422 12.1C31.3722 12.1 33.1005 12.8286 34.3968 14.1558L37.9297 17.3565L41.5261 14.0907C42.7589 12.8286 44.4872 12.1 46.3172 12.1ZM32.5922 22.2097L36.0234 19.1L32.643 16.0424C31.7789 15.1576 30.6986 14.7022 29.5422 14.7022C27.1657 14.7022 25.2214 16.6669 25.2214 19.1C25.2214 21.5331 27.1657 23.4978 29.5422 23.4978C30.6986 23.4978 31.7789 23.0424 32.5922 22.2097ZM43.2672 15.9903L39.8359 19.1L43.2164 22.1576C44.0805 23.0424 45.1734 23.4978 46.3172 23.4978C48.6936 23.4978 50.638 21.5331 50.638 19.1C50.638 16.6669 48.6936 14.7022 46.3172 14.7022C45.1607 14.7022 44.0805 15.1576 43.2672 15.9903Z" fill="url(#paint0_linear_572_1794)"/>
<path d="M26.5 13.416C28.5717 11.968 24.4297 17.1247 24.4297 17.85C24.4297 19.3647 21.384 23.1227 19.976 24.552C18.568 25.96 16.8507 26.6747 14.824 26.696C13.3947 26.696 11.7413 26.1307 9.864 25C8.52 26.4293 6.84533 27.144 4.84 27.144C3.51733 27.144 2.54667 26.8133 1.928 26.152C1.30933 25.4907 1 24.616 1 23.528C1 22.44 1.39467 21.6293 2.184 21.096C2.99467 20.5413 4.01867 20.264 5.256 20.264C5.91733 20.264 6.536 20.296 7.112 20.36C7.112 17.7573 7.4 15.2187 7.976 12.744C7.272 12.3813 6.664 11.976 6.152 11.528C5.66133 11.08 5.416 10.728 5.416 10.472C5.416 9.78933 5.56533 9.448 5.864 9.448C6.29067 9.448 6.728 9.576 7.176 9.832C7.64533 10.0667 8.14667 10.248 8.68 10.376C10.0027 6.55733 11.816 4.09333 14.12 2.984C14.9307 2.6 15.784 2.408 16.68 2.408C20.0507 2.408 21.736 3.82667 21.736 6.664C21.736 8.28533 21.128 9.68267 19.912 10.856C18.2267 12.4773 15.6667 13.3307 12.232 13.416C11.9973 15.208 11.88 17.3307 11.88 19.784C11.88 20.3813 11.8053 21.0533 11.656 21.8C12.4027 22.184 13.128 22.536 13.832 22.856C14.536 23.176 15.4 23.336 16.424 23.336C16.9573 23.336 17.48 23.112 17.992 22.664C18.5253 22.216 19.016 21.7253 19.464 21.192C19.9333 20.6587 20.7769 19.3465 21.1396 18.8985C21.5285 18.4928 23.959 15.1147 24.5099 14.3475C24.9873 13.6828 27.0698 12.2444 27 12.744C26.7635 14.4363 26.239 13.5579 26.5 13.416ZM16.616 5.544C14.824 5.544 13.5227 7.25067 12.712 10.664C14.248 10.536 15.5387 10.1093 16.584 9.384C17.6507 8.63733 18.184 7.89067 18.184 7.144C18.184 6.07733 17.6613 5.544 16.616 5.544ZM4.104 23.752C4.12533 24.3493 4.54133 24.648 5.352 24.648C6.16267 24.648 6.67467 24.1787 6.888 23.24C6.29067 22.9413 5.8 22.792 5.416 22.792C4.56267 22.792 4.12533 23.112 4.104 23.752Z" fill="url(#paint1_linear_572_1794)"/>
<path d="M71.7854 16.872C71.7854 16.168 71.3801 15.816 70.5694 15.816C70.0147 15.816 69.3961 16.36 68.7134 17.448C68.0307 18.5147 67.5401 19.6667 67.2414 20.904V20.968C67.2414 21.6933 67.3481 22.44 67.5614 23.208C67.7961 23.976 67.9134 24.5093 67.9134 24.808C67.9134 25.5333 67.0067 26.248 65.1934 26.952C64.9161 27.0587 64.6707 27.112 64.4574 27.112C63.9241 27.112 63.5507 26.8347 63.3374 26.28C63.1454 25.7253 63.0494 24.9787 63.0494 24.04C63.0494 23.08 63.0707 22.184 63.1134 21.352C63.1774 20.4987 63.2307 19.72 63.2734 19.016C63.3374 18.2907 63.3907 17.6613 63.4334 17.128C63.4974 16.5733 63.5294 16.1253 63.5294 15.784C63.5294 15.0587 63.1987 14.696 62.5374 14.696C61.8761 14.696 61.1081 15.4747 60.2334 17.032C59.3587 18.568 58.9214 19.7947 58.9214 20.712C58.9214 21.608 59.0281 22.44 59.2414 23.208C59.4761 23.976 59.5934 24.5093 59.5934 24.808C59.5934 25.5333 58.6867 26.248 56.8734 26.952C56.5961 27.0587 56.3507 27.112 56.1374 27.112C55.6041 27.112 55.3842 26.8574 55.0174 26.28C54.3378 25.2101 53.6603 24.2996 53.1793 23.1C52.0059 20.1734 49.829 14.622 52.8292 16.872C53.0792 17.372 53.9297 21.35 54.9292 21.6C54.9292 18.5707 54.8467 18.504 55.0814 17.16C55.4014 15.176 56.1267 13.2987 57.2574 11.528C57.6414 10.9307 58.0574 10.632 58.5054 10.632C59.2094 10.632 59.8601 11.208 60.4574 12.36C60.6281 12.6587 60.7561 12.936 60.8414 13.192C61.8654 11.912 63.0707 11.272 64.4574 11.272C65.3747 11.272 66.1961 11.5813 66.9214 12.2C67.6467 12.7973 68.0094 13.5547 68.0094 14.472V14.824C69.3107 13.2027 70.9001 12.392 72.7774 12.392C73.9294 12.392 74.8041 12.6907 75.4014 13.288C75.9987 13.8853 76.2974 14.6213 76.2974 15.496C76.2974 16.3707 76.2334 17.16 76.1054 17.864C75.9774 18.568 75.8281 19.2293 75.6574 19.848C75.5081 20.4667 75.3694 21.0213 75.2414 21.512C75.1134 21.9813 75.0494 22.3547 75.0494 22.632C75.0494 22.888 75.1347 23.016 75.3054 23.016C75.6254 23.016 76.0201 22.8133 76.4894 22.408C76.9587 22.0027 77.4281 21.5653 77.8974 21.096C78.3667 20.6053 78.7934 20.1573 79.1774 19.752C79.5827 19.3467 79.8601 19.144 80.0094 19.144C80.3081 19.144 80.4574 19.5067 80.4574 20.232C80.4574 21.7253 79.7001 23.176 78.1854 24.584C76.6921 25.992 75.0921 26.696 73.3854 26.696C71.8494 26.696 71.0814 25.2987 71.0814 22.504C71.0814 21.8 71.1987 20.8293 71.4334 19.592C71.6681 18.3547 71.7854 17.448 71.7854 16.872Z" fill="url(#paint2_linear_572_1794)"/>
<path d="M82.6832 26.696C80.5498 26.696 79.4832 24.7013 79.4832 20.712C79.4832 18.536 79.7498 16.5627 80.2832 14.792C81.1152 12.0613 82.0538 10.696 83.0992 10.696C83.7178 10.696 84.2085 11.112 84.5711 11.944C84.8698 12.584 85.0085 13.2133 84.9871 13.832C84.9871 14.6853 84.7311 16.1893 84.2191 18.344C83.7285 20.2213 83.4832 21.384 83.4832 21.832C83.4832 22.28 83.5898 22.5893 83.8032 22.76C84.0378 22.9307 84.3045 23.016 84.6031 23.016C84.9231 23.016 85.3178 22.8133 85.7871 22.408C86.2565 22.0027 86.7258 21.5653 87.1951 21.096C87.6645 20.6053 88.0911 20.1573 88.4751 19.752C88.8805 19.3467 89.1578 19.144 89.3071 19.144C89.6058 19.144 89.7551 19.5067 89.7551 20.232C89.7551 21.7253 88.9978 23.1867 87.4831 24.616C85.9898 26.024 84.3898 26.7173 82.6832 26.696ZM83.9951 8.104C83.4191 7.25067 83.1312 6.33333 83.1312 5.352C83.1312 4.37067 83.2805 3.56 83.5792 2.92C83.8992 2.25867 84.1978 1.77867 84.4751 1.48C84.7525 1.16 85.0725 1 85.4351 1C86.0325 1 86.5765 1.448 87.0671 2.344C87.5578 3.21867 87.8031 3.95467 87.8031 4.552C87.8031 5.66133 87.4085 6.536 86.6191 7.176C85.8511 7.79467 84.9765 8.104 83.9951 8.104Z" fill="url(#paint3_linear_572_1794)"/>
<path d="M92.4116 10.632C93.1796 10.632 93.905 11.368 94.5876 12.84C95.5903 11.7947 96.8276 11.272 98.2996 11.272C99.793 11.272 100.913 11.6027 101.66 12.264C102.406 12.904 102.78 13.8213 102.78 15.016C102.78 16.1893 102.62 17.384 102.3 18.6C102.001 19.816 101.777 20.6907 101.628 21.224C101.5 21.736 101.436 22.1627 101.436 22.504C101.436 22.8453 101.553 23.016 101.788 23.016C102.108 23.016 102.502 22.8133 102.972 22.408C103.441 22.0027 103.91 21.5653 104.38 21.096C104.849 20.6053 105.276 20.1573 105.66 19.752C106.065 19.3467 106.342 19.144 106.492 19.144C106.79 19.144 106.94 19.5067 106.94 20.232C106.94 21.7253 106.204 23.1653 104.732 24.552C102.257 26.0027 100.678 26.728 99.9956 26.728C99.9316 26.728 99.889 26.7173 99.8676 26.696C98.161 26.696 97.3076 25.3307 97.3076 22.6C97.3076 21.4267 97.4143 20.3493 97.6276 19.368C97.8623 18.3867 98.033 17.672 98.1396 17.224C98.2463 16.776 98.2996 16.3173 98.2996 15.848C98.2996 15.08 97.8516 14.696 96.9556 14.696C96.081 14.696 95.2383 15.3573 94.4276 16.68C93.6383 17.9813 93.105 19.336 92.8276 20.744V20.968C92.8276 21.6933 92.9343 22.44 93.1476 23.208C93.3823 23.976 93.4996 24.5093 93.4996 24.808C93.4996 25.5333 92.593 26.248 90.7796 26.952C90.5023 27.0587 90.257 27.112 90.0436 27.112C89.5103 27.112 89.137 26.8347 88.9236 26.28C88.7316 25.7253 88.6356 24.8613 88.6356 23.688C88.6356 20.6587 88.753 18.472 88.9876 17.128C89.3076 15.1227 90.033 13.256 91.1636 11.528C91.5476 10.9307 91.9636 10.632 92.4116 10.632Z" fill="url(#paint4_linear_572_1794)"/>
<path d="M124.991 19.048C125.375 19.048 125.567 19.5387 125.567 20.52C125.567 21.0533 125.343 21.704 124.895 22.472C124.447 23.2187 123.861 23.912 123.135 24.552C122.431 25.1707 121.642 25.6827 120.767 26.088C119.893 26.4933 119.039 26.696 118.207 26.696C117.077 26.696 116.319 25.704 115.935 23.72C115.38 24.6373 114.655 25.3947 113.759 25.992C112.863 26.568 111.658 26.856 110.143 26.856C108.65 26.856 107.444 26.3867 106.527 25.448C105.61 24.5093 105.162 23.368 105.183 22.024C105.183 18.3973 106.388 15.5387 108.799 13.448C109.823 12.5733 110.772 11.9973 111.647 11.72C112.543 11.4427 113.482 11.304 114.463 11.304C115.444 11.304 116.245 11.4747 116.863 11.816C117.162 11.1973 117.503 10.888 117.887 10.888C118.634 10.888 119.338 11.2187 119.999 11.88C120.682 12.52 121.023 13.128 121.023 13.704C120.725 14.408 120.287 15.2507 119.711 16.232C119.541 17.2133 119.455 18.5893 119.455 20.36C119.455 22.1307 119.679 23.016 120.127 23.016C120.682 23.016 122.026 21.9067 124.159 19.688C124.543 19.2613 124.821 19.048 124.991 19.048ZM109.887 20.968C109.887 22.6107 110.495 23.432 111.711 23.432C113.012 23.4107 114.09 22.7173 114.943 21.352C115.242 20.8827 115.487 20.3067 115.679 19.624C115.679 17.2347 115.893 15.1867 116.319 13.48C114.591 13.8213 113.087 14.6533 111.807 15.976C110.527 17.2987 109.887 18.9627 109.887 20.968Z" fill="url(#paint5_linear_572_1794)"/>
<path d="M46.3172 12.1C50.1043 12.1 53.1797 15.1967 53.1797 19.1C53.1797 22.9513 50.1043 26.087 46.3172 26.087C44.4745 26.087 42.7589 25.3584 41.4626 24.0442L37.9297 20.8435L34.3332 24.1093C33.1005 25.3714 31.3722 26.1 29.5422 26.1C25.7551 26.1 22.6797 22.9513 22.6797 19.1C22.6797 15.2487 25.7551 12.1 29.5422 12.1C31.3722 12.1 33.1005 12.8286 34.3968 14.1558L37.9297 17.3565L41.5261 14.0907C42.7589 12.8286 44.4872 12.1 46.3172 12.1ZM32.5922 22.2097L36.0234 19.1L32.643 16.0424C31.7789 15.1576 30.6986 14.7022 29.5422 14.7022C27.1657 14.7022 25.2214 16.6669 25.2214 19.1C25.2214 21.5331 27.1657 23.4978 29.5422 23.4978C30.6986 23.4978 31.7789 23.0424 32.5922 22.2097ZM43.2672 15.9903L39.8359 19.1L43.2164 22.1576C44.0805 23.0424 45.1734 23.4978 46.3172 23.4978C48.6936 23.4978 50.638 21.5331 50.638 19.1C50.638 16.6669 48.6936 14.7022 46.3172 14.7022C45.1607 14.7022 44.0805 15.1576 43.2672 15.9903Z" stroke="url(#paint6_linear_572_1794)" stroke-width="0.5" mask="url(#path-1-outside-1_572_1794)"/>
<path d="M26.5 13.416C28.5717 11.968 24.4297 17.1247 24.4297 17.85C24.4297 19.3647 21.384 23.1227 19.976 24.552C18.568 25.96 16.8507 26.6747 14.824 26.696C13.3947 26.696 11.7413 26.1307 9.864 25C8.52 26.4293 6.84533 27.144 4.84 27.144C3.51733 27.144 2.54667 26.8133 1.928 26.152C1.30933 25.4907 1 24.616 1 23.528C1 22.44 1.39467 21.6293 2.184 21.096C2.99467 20.5413 4.01867 20.264 5.256 20.264C5.91733 20.264 6.536 20.296 7.112 20.36C7.112 17.7573 7.4 15.2187 7.976 12.744C7.272 12.3813 6.664 11.976 6.152 11.528C5.66133 11.08 5.416 10.728 5.416 10.472C5.416 9.78933 5.56533 9.448 5.864 9.448C6.29067 9.448 6.728 9.576 7.176 9.832C7.64533 10.0667 8.14667 10.248 8.68 10.376C10.0027 6.55733 11.816 4.09333 14.12 2.984C14.9307 2.6 15.784 2.408 16.68 2.408C20.0507 2.408 21.736 3.82667 21.736 6.664C21.736 8.28533 21.128 9.68267 19.912 10.856C18.2267 12.4773 15.6667 13.3307 12.232 13.416C11.9973 15.208 11.88 17.3307 11.88 19.784C11.88 20.3813 11.8053 21.0533 11.656 21.8C12.4027 22.184 13.128 22.536 13.832 22.856C14.536 23.176 15.4 23.336 16.424 23.336C16.9573 23.336 17.48 23.112 17.992 22.664C18.5253 22.216 19.016 21.7253 19.464 21.192C19.9333 20.6587 20.7769 19.3465 21.1396 18.8985C21.5285 18.4928 23.959 15.1147 24.5099 14.3475C24.9873 13.6828 27.0698 12.2444 27 12.744C26.7635 14.4363 26.239 13.5579 26.5 13.416ZM16.616 5.544C14.824 5.544 13.5227 7.25067 12.712 10.664C14.248 10.536 15.5387 10.1093 16.584 9.384C17.6507 8.63733 18.184 7.89067 18.184 7.144C18.184 6.07733 17.6613 5.544 16.616 5.544ZM4.104 23.752C4.12533 24.3493 4.54133 24.648 5.352 24.648C6.16267 24.648 6.67467 24.1787 6.888 23.24C6.29067 22.9413 5.8 22.792 5.416 22.792C4.56267 22.792 4.12533 23.112 4.104 23.752Z" stroke="url(#paint7_linear_572_1794)" stroke-width="0.5" mask="url(#path-1-outside-1_572_1794)"/>
<path d="M71.7854 16.872C71.7854 16.168 71.3801 15.816 70.5694 15.816C70.0147 15.816 69.3961 16.36 68.7134 17.448C68.0307 18.5147 67.5401 19.6667 67.2414 20.904V20.968C67.2414 21.6933 67.3481 22.44 67.5614 23.208C67.7961 23.976 67.9134 24.5093 67.9134 24.808C67.9134 25.5333 67.0067 26.248 65.1934 26.952C64.9161 27.0587 64.6707 27.112 64.4574 27.112C63.9241 27.112 63.5507 26.8347 63.3374 26.28C63.1454 25.7253 63.0494 24.9787 63.0494 24.04C63.0494 23.08 63.0707 22.184 63.1134 21.352C63.1774 20.4987 63.2307 19.72 63.2734 19.016C63.3374 18.2907 63.3907 17.6613 63.4334 17.128C63.4974 16.5733 63.5294 16.1253 63.5294 15.784C63.5294 15.0587 63.1987 14.696 62.5374 14.696C61.8761 14.696 61.1081 15.4747 60.2334 17.032C59.3587 18.568 58.9214 19.7947 58.9214 20.712C58.9214 21.608 59.0281 22.44 59.2414 23.208C59.4761 23.976 59.5934 24.5093 59.5934 24.808C59.5934 25.5333 58.6867 26.248 56.8734 26.952C56.5961 27.0587 56.3507 27.112 56.1374 27.112C55.6041 27.112 55.3842 26.8574 55.0174 26.28C54.3378 25.2101 53.6603 24.2996 53.1793 23.1C52.0059 20.1734 49.829 14.622 52.8292 16.872C53.0792 17.372 53.9297 21.35 54.9292 21.6C54.9292 18.5707 54.8467 18.504 55.0814 17.16C55.4014 15.176 56.1267 13.2987 57.2574 11.528C57.6414 10.9307 58.0574 10.632 58.5054 10.632C59.2094 10.632 59.8601 11.208 60.4574 12.36C60.6281 12.6587 60.7561 12.936 60.8414 13.192C61.8654 11.912 63.0707 11.272 64.4574 11.272C65.3747 11.272 66.1961 11.5813 66.9214 12.2C67.6467 12.7973 68.0094 13.5547 68.0094 14.472V14.824C69.3107 13.2027 70.9001 12.392 72.7774 12.392C73.9294 12.392 74.8041 12.6907 75.4014 13.288C75.9987 13.8853 76.2974 14.6213 76.2974 15.496C76.2974 16.3707 76.2334 17.16 76.1054 17.864C75.9774 18.568 75.8281 19.2293 75.6574 19.848C75.5081 20.4667 75.3694 21.0213 75.2414 21.512C75.1134 21.9813 75.0494 22.3547 75.0494 22.632C75.0494 22.888 75.1347 23.016 75.3054 23.016C75.6254 23.016 76.0201 22.8133 76.4894 22.408C76.9587 22.0027 77.4281 21.5653 77.8974 21.096C78.3667 20.6053 78.7934 20.1573 79.1774 19.752C79.5827 19.3467 79.8601 19.144 80.0094 19.144C80.3081 19.144 80.4574 19.5067 80.4574 20.232C80.4574 21.7253 79.7001 23.176 78.1854 24.584C76.6921 25.992 75.0921 26.696 73.3854 26.696C71.8494 26.696 71.0814 25.2987 71.0814 22.504C71.0814 21.8 71.1987 20.8293 71.4334 19.592C71.6681 18.3547 71.7854 17.448 71.7854 16.872Z" stroke="url(#paint8_linear_572_1794)" stroke-width="0.5" mask="url(#path-1-outside-1_572_1794)"/>
<path d="M82.6832 26.696C80.5498 26.696 79.4832 24.7013 79.4832 20.712C79.4832 18.536 79.7498 16.5627 80.2832 14.792C81.1152 12.0613 82.0538 10.696 83.0992 10.696C83.7178 10.696 84.2085 11.112 84.5711 11.944C84.8698 12.584 85.0085 13.2133 84.9871 13.832C84.9871 14.6853 84.7311 16.1893 84.2191 18.344C83.7285 20.2213 83.4832 21.384 83.4832 21.832C83.4832 22.28 83.5898 22.5893 83.8032 22.76C84.0378 22.9307 84.3045 23.016 84.6031 23.016C84.9231 23.016 85.3178 22.8133 85.7871 22.408C86.2565 22.0027 86.7258 21.5653 87.1951 21.096C87.6645 20.6053 88.0911 20.1573 88.4751 19.752C88.8805 19.3467 89.1578 19.144 89.3071 19.144C89.6058 19.144 89.7551 19.5067 89.7551 20.232C89.7551 21.7253 88.9978 23.1867 87.4831 24.616C85.9898 26.024 84.3898 26.7173 82.6832 26.696ZM83.9951 8.104C83.4191 7.25067 83.1312 6.33333 83.1312 5.352C83.1312 4.37067 83.2805 3.56 83.5792 2.92C83.8992 2.25867 84.1978 1.77867 84.4751 1.48C84.7525 1.16 85.0725 1 85.4351 1C86.0325 1 86.5765 1.448 87.0671 2.344C87.5578 3.21867 87.8031 3.95467 87.8031 4.552C87.8031 5.66133 87.4085 6.536 86.6191 7.176C85.8511 7.79467 84.9765 8.104 83.9951 8.104Z" stroke="url(#paint9_linear_572_1794)" stroke-width="0.5" mask="url(#path-1-outside-1_572_1794)"/>
<path d="M92.4116 10.632C93.1796 10.632 93.905 11.368 94.5876 12.84C95.5903 11.7947 96.8276 11.272 98.2996 11.272C99.793 11.272 100.913 11.6027 101.66 12.264C102.406 12.904 102.78 13.8213 102.78 15.016C102.78 16.1893 102.62 17.384 102.3 18.6C102.001 19.816 101.777 20.6907 101.628 21.224C101.5 21.736 101.436 22.1627 101.436 22.504C101.436 22.8453 101.553 23.016 101.788 23.016C102.108 23.016 102.502 22.8133 102.972 22.408C103.441 22.0027 103.91 21.5653 104.38 21.096C104.849 20.6053 105.276 20.1573 105.66 19.752C106.065 19.3467 106.342 19.144 106.492 19.144C106.79 19.144 106.94 19.5067 106.94 20.232C106.94 21.7253 106.204 23.1653 104.732 24.552C102.257 26.0027 100.678 26.728 99.9956 26.728C99.9316 26.728 99.889 26.7173 99.8676 26.696C98.161 26.696 97.3076 25.3307 97.3076 22.6C97.3076 21.4267 97.4143 20.3493 97.6276 19.368C97.8623 18.3867 98.033 17.672 98.1396 17.224C98.2463 16.776 98.2996 16.3173 98.2996 15.848C98.2996 15.08 97.8516 14.696 96.9556 14.696C96.081 14.696 95.2383 15.3573 94.4276 16.68C93.6383 17.9813 93.105 19.336 92.8276 20.744V20.968C92.8276 21.6933 92.9343 22.44 93.1476 23.208C93.3823 23.976 93.4996 24.5093 93.4996 24.808C93.4996 25.5333 92.593 26.248 90.7796 26.952C90.5023 27.0587 90.257 27.112 90.0436 27.112C89.5103 27.112 89.137 26.8347 88.9236 26.28C88.7316 25.7253 88.6356 24.8613 88.6356 23.688C88.6356 20.6587 88.753 18.472 88.9876 17.128C89.3076 15.1227 90.033 13.256 91.1636 11.528C91.5476 10.9307 91.9636 10.632 92.4116 10.632Z" stroke="url(#paint10_linear_572_1794)" stroke-width="0.5" mask="url(#path-1-outside-1_572_1794)"/>
<path d="M124.991 19.048C125.375 19.048 125.567 19.5387 125.567 20.52C125.567 21.0533 125.343 21.704 124.895 22.472C124.447 23.2187 123.861 23.912 123.135 24.552C122.431 25.1707 121.642 25.6827 120.767 26.088C119.893 26.4933 119.039 26.696 118.207 26.696C117.077 26.696 116.319 25.704 115.935 23.72C115.38 24.6373 114.655 25.3947 113.759 25.992C112.863 26.568 111.658 26.856 110.143 26.856C108.65 26.856 107.444 26.3867 106.527 25.448C105.61 24.5093 105.162 23.368 105.183 22.024C105.183 18.3973 106.388 15.5387 108.799 13.448C109.823 12.5733 110.772 11.9973 111.647 11.72C112.543 11.4427 113.482 11.304 114.463 11.304C115.444 11.304 116.245 11.4747 116.863 11.816C117.162 11.1973 117.503 10.888 117.887 10.888C118.634 10.888 119.338 11.2187 119.999 11.88C120.682 12.52 121.023 13.128 121.023 13.704C120.725 14.408 120.287 15.2507 119.711 16.232C119.541 17.2133 119.455 18.5893 119.455 20.36C119.455 22.1307 119.679 23.016 120.127 23.016C120.682 23.016 122.026 21.9067 124.159 19.688C124.543 19.2613 124.821 19.048 124.991 19.048ZM109.887 20.968C109.887 22.6107 110.495 23.432 111.711 23.432C113.012 23.4107 114.09 22.7173 114.943 21.352C115.242 20.8827 115.487 20.3067 115.679 19.624C115.679 17.2347 115.893 15.1867 116.319 13.48C114.591 13.8213 113.087 14.6533 111.807 15.976C110.527 17.2987 109.887 18.9627 109.887 20.968Z" stroke="url(#paint11_linear_572_1794)" stroke-width="0.5" mask="url(#path-1-outside-1_572_1794)"/>
<defs>
<linearGradient id="paint0_linear_572_1794" x1="63.2836" y1="1" x2="63.2836" y2="27.144" gradientUnits="userSpaceOnUse">
<stop stop-color="#4B0082"/>
<stop offset="1" stop-color="#800080"/>
</linearGradient>
<linearGradient id="paint1_linear_572_1794" x1="63.2836" y1="1" x2="63.2836" y2="27.144" gradientUnits="userSpaceOnUse">
<stop stop-color="#4B0082"/>
<stop offset="1" stop-color="#800080"/>
</linearGradient>
<linearGradient id="paint2_linear_572_1794" x1="63.2836" y1="1" x2="63.2836" y2="27.144" gradientUnits="userSpaceOnUse">
<stop stop-color="#4B0082"/>
<stop offset="1" stop-color="#800080"/>
</linearGradient>
<linearGradient id="paint3_linear_572_1794" x1="63.2836" y1="1" x2="63.2836" y2="27.144" gradientUnits="userSpaceOnUse">
<stop stop-color="#4B0082"/>
<stop offset="1" stop-color="#800080"/>
</linearGradient>
<linearGradient id="paint4_linear_572_1794" x1="63.2836" y1="1" x2="63.2836" y2="27.144" gradientUnits="userSpaceOnUse">
<stop stop-color="#4B0082"/>
<stop offset="1" stop-color="#800080"/>
</linearGradient>
<linearGradient id="paint5_linear_572_1794" x1="63.2836" y1="1" x2="63.2836" y2="27.144" gradientUnits="userSpaceOnUse">
<stop stop-color="#4B0082"/>
<stop offset="1" stop-color="#800080"/>
</linearGradient>
<linearGradient id="paint6_linear_572_1794" x1="63.2836" y1="1" x2="63.2836" y2="27.144" gradientUnits="userSpaceOnUse">
<stop stop-color="#4B0082"/>
<stop offset="1" stop-color="#800080"/>
</linearGradient>
<linearGradient id="paint7_linear_572_1794" x1="63.2836" y1="1" x2="63.2836" y2="27.144" gradientUnits="userSpaceOnUse">
<stop stop-color="#4B0082"/>
<stop offset="1" stop-color="#800080"/>
</linearGradient>
<linearGradient id="paint8_linear_572_1794" x1="63.2836" y1="1" x2="63.2836" y2="27.144" gradientUnits="userSpaceOnUse">
<stop stop-color="#4B0082"/>
<stop offset="1" stop-color="#800080"/>
</linearGradient>
<linearGradient id="paint9_linear_572_1794" x1="63.2836" y1="1" x2="63.2836" y2="27.144" gradientUnits="userSpaceOnUse">
<stop stop-color="#4B0082"/>
<stop offset="1" stop-color="#800080"/>
</linearGradient>
<linearGradient id="paint10_linear_572_1794" x1="63.2836" y1="1" x2="63.2836" y2="27.144" gradientUnits="userSpaceOnUse">
<stop stop-color="#4B0082"/>
<stop offset="1" stop-color="#800080"/>
</linearGradient>
<linearGradient id="paint11_linear_572_1794" x1="63.2836" y1="1" x2="63.2836" y2="27.144" gradientUnits="userSpaceOnUse">
<stop stop-color="#4B0082"/>
<stop offset="1" stop-color="#800080"/>
</linearGradient>
</defs>
</svg>
