<svg width="100" height="100" viewBox="0 0 100 100" fill="none" xmlns="http://www.w3.org/2000/svg">
<rect width="100" height="100" fill="white"/>
<path d="M53.0703 43.2762L57.6112 25.1112L66.6913 20.5703M53.0703 43.2762L66.6913 38.7338L75.773 29.652L66.6913 20.5703M53.0703 43.2762L66.6913 20.5703" stroke="#202020" stroke-width="2.592" stroke-linecap="round" stroke-linejoin="round"/>
<path d="M75.7762 29.6367L80.3171 47.8034M80.3171 47.8034V61.426L75.7762 75.0486L66.6945 79.5894L53.0703 70.5077M80.3171 47.8034L66.6945 38.7184L62.1537 56.8835M80.3171 47.8034L62.1537 56.8835M53.0703 70.5077V43.2609L62.1537 56.8835M53.0703 70.5077L62.1537 56.8835" stroke="#202020" stroke-width="2.592" stroke-linecap="round" stroke-linejoin="round"/>
<path d="M53.0703 70.5114H66.6929L80.3155 61.4297" stroke="#202020" stroke-width="2.592" stroke-linecap="round" stroke-linejoin="round"/>
<path d="M71.2377 52.358L66.6952 70.5214L62.1543 56.8972M47.6246 43.2762L43.0837 25.1112L34.0036 20.5703M47.6246 43.2762L34.0036 38.7338L24.9219 29.652L34.0036 20.5703M47.6246 43.2762L34.0036 20.5703" stroke="#202020" stroke-width="2.592" stroke-linecap="round" stroke-linejoin="round"/>
<path d="M24.912 29.6367L20.3711 47.8034M20.3711 47.8034V61.426L24.912 75.0486L33.9937 79.5894L47.6179 70.5077M20.3711 47.8034L33.9937 38.7184L38.5345 56.8835M20.3711 47.8034L38.5345 56.8835M47.6179 70.5077V43.2609L38.5345 56.8835M47.6179 70.5077L38.5345 56.8835" stroke="#202020" stroke-width="2.592" stroke-linecap="round" stroke-linejoin="round"/>
<path d="M47.6163 70.5114H33.9953L20.3711 61.4297" stroke="#202020" stroke-width="2.592" stroke-linecap="round" stroke-linejoin="round"/>
<path d="M29.4648 52.3477L34.0057 70.5111L38.5466 56.8869" stroke="#202020" stroke-width="2.592" stroke-linecap="round" stroke-linejoin="round"/>
</svg>
