<svg width="256" height="72" viewBox="0 0 256 72" fill="none" xmlns="http://www.w3.org/2000/svg">
<path d="M57.2984 49.448H69.0104V53H52.9304V19.544H57.2984V49.448ZM85.1211 53.432C82.6571 53.432 80.4171 52.872 78.4011 51.752C76.4171 50.632 74.8491 49.048 73.6971 47C72.5771 44.92 72.0171 42.52 72.0171 39.8C72.0171 37.112 72.5931 34.744 73.7451 32.696C74.9291 30.616 76.5291 29.032 78.5451 27.944C80.5611 26.824 82.8171 26.264 85.3131 26.264C87.8091 26.264 90.0651 26.824 92.0811 27.944C94.0971 29.032 95.6811 30.6 96.8331 32.648C98.0171 34.696 98.6091 37.08 98.6091 39.8C98.6091 42.52 98.0011 44.92 96.7851 47C95.6011 49.048 93.9851 50.632 91.9371 51.752C89.8891 52.872 87.6171 53.432 85.1211 53.432ZM85.1211 49.592C86.6891 49.592 88.1611 49.224 89.5371 48.488C90.9131 47.752 92.0171 46.648 92.8491 45.176C93.7131 43.704 94.1451 41.912 94.1451 39.8C94.1451 37.688 93.7291 35.896 92.8971 34.424C92.0651 32.952 90.9771 31.864 89.6331 31.16C88.2891 30.424 86.8331 30.056 85.2651 30.056C83.6651 30.056 82.1931 30.424 80.8491 31.16C79.5371 31.864 78.4811 32.952 77.6811 34.424C76.8811 35.896 76.4811 37.688 76.4811 39.8C76.4811 41.944 76.8651 43.752 77.6331 45.224C78.4331 46.696 79.4891 47.8 80.8011 48.536C82.1131 49.24 83.5531 49.592 85.1211 49.592ZM115.824 53.432C113.36 53.432 111.12 52.872 109.104 51.752C107.12 50.632 105.552 49.048 104.4 47C103.28 44.92 102.72 42.52 102.72 39.8C102.72 37.112 103.296 34.744 104.448 32.696C105.632 30.616 107.232 29.032 109.248 27.944C111.264 26.824 113.52 26.264 116.016 26.264C118.512 26.264 120.768 26.824 122.784 27.944C124.8 29.032 126.384 30.6 127.536 32.648C128.72 34.696 129.312 37.08 129.312 39.8C129.312 42.52 128.704 44.92 127.488 47C126.304 49.048 124.688 50.632 122.64 51.752C120.592 52.872 118.32 53.432 115.824 53.432ZM115.824 49.592C117.392 49.592 118.864 49.224 120.24 48.488C121.616 47.752 122.72 46.648 123.552 45.176C124.416 43.704 124.848 41.912 124.848 39.8C124.848 37.688 124.432 35.896 123.6 34.424C122.768 32.952 121.68 31.864 120.336 31.16C118.992 30.424 117.536 30.056 115.968 30.056C114.368 30.056 112.896 30.424 111.552 31.16C110.24 31.864 109.184 32.952 108.384 34.424C107.584 35.896 107.184 37.688 107.184 39.8C107.184 41.944 107.568 43.752 108.336 45.224C109.136 46.696 110.192 47.8 111.504 48.536C112.816 49.24 114.256 49.592 115.824 49.592ZM166.687 26.216C168.735 26.216 170.559 26.648 172.159 27.512C173.759 28.344 175.023 29.608 175.951 31.304C176.879 33 177.343 35.064 177.343 37.496V53H173.023V38.12C173.023 35.496 172.367 33.496 171.055 32.12C169.775 30.712 168.031 30.008 165.823 30.008C163.551 30.008 161.743 30.744 160.399 32.216C159.055 33.656 158.383 35.752 158.383 38.504V53H154.063V38.12C154.063 35.496 153.407 33.496 152.095 32.12C150.815 30.712 149.071 30.008 146.863 30.008C144.591 30.008 142.783 30.744 141.439 32.216C140.095 33.656 139.423 35.752 139.423 38.504V53H135.055V26.696H139.423V30.488C140.287 29.112 141.439 28.056 142.879 27.32C144.351 26.584 145.967 26.216 147.727 26.216C149.935 26.216 151.887 26.712 153.583 27.704C155.279 28.696 156.543 30.152 157.375 32.072C158.111 30.216 159.327 28.776 161.023 27.752C162.719 26.728 164.607 26.216 166.687 26.216ZM186.765 22.424C185.933 22.424 185.229 22.136 184.653 21.56C184.077 20.984 183.789 20.28 183.789 19.448C183.789 18.616 184.077 17.912 184.653 17.336C185.229 16.76 185.933 16.472 186.765 16.472C187.565 16.472 188.237 16.76 188.781 17.336C189.357 17.912 189.645 18.616 189.645 19.448C189.645 20.28 189.357 20.984 188.781 21.56C188.237 22.136 187.565 22.424 186.765 22.424ZM188.877 26.696V53H184.509V26.696H188.877ZM209.137 26.216C212.337 26.216 214.929 27.192 216.913 29.144C218.897 31.064 219.889 33.848 219.889 37.496V53H215.569V38.12C215.569 35.496 214.913 33.496 213.601 32.12C212.289 30.712 210.497 30.008 208.225 30.008C205.921 30.008 204.081 30.728 202.705 32.168C201.361 33.608 200.689 35.704 200.689 38.456V53H196.321V26.696H200.689V30.44C201.553 29.096 202.721 28.056 204.193 27.32C205.697 26.584 207.345 26.216 209.137 26.216ZM225.392 39.752C225.392 37.064 225.936 34.712 227.024 32.696C228.112 30.648 229.6 29.064 231.488 27.944C233.408 26.824 235.536 26.264 237.872 26.264C240.176 26.264 242.176 26.76 243.872 27.752C245.568 28.744 246.832 29.992 247.664 31.496V26.696H252.08V53H247.664V48.104C246.8 49.64 245.504 50.92 243.776 51.944C242.08 52.936 240.096 53.432 237.824 53.432C235.488 53.432 233.376 52.856 231.488 51.704C229.6 50.552 228.112 48.936 227.024 46.856C225.936 44.776 225.392 42.408 225.392 39.752ZM247.664 39.8C247.664 37.816 247.264 36.088 246.464 34.616C245.664 33.144 244.576 32.024 243.2 31.256C241.856 30.456 240.368 30.056 238.736 30.056C237.104 30.056 235.616 30.44 234.272 31.208C232.928 31.976 231.856 33.096 231.056 34.568C230.256 36.04 229.856 37.768 229.856 39.752C229.856 41.768 230.256 43.528 231.056 45.032C231.856 46.504 232.928 47.64 234.272 48.44C235.616 49.208 237.104 49.592 238.736 49.592C240.368 49.592 241.856 49.208 243.2 48.44C244.576 47.64 245.664 46.504 246.464 45.032C247.264 43.528 247.664 41.784 247.664 39.8Z" fill="#202020"/>
<path d="M20.5781 32.0619L23.2059 21.5497L28.4606 18.9219M20.5781 32.0619L28.4606 29.4331L33.7162 24.1775L28.4606 18.9219M20.5781 32.0619L28.4606 18.9219" stroke="#202020" stroke-width="1.5" stroke-linecap="round" stroke-linejoin="round"/>
<path d="M33.7181 24.1719L36.3459 34.685M36.3459 34.685V42.5684L33.7181 50.4519L28.4625 53.0797L20.5781 47.8241M36.3459 34.685L28.4625 29.4275L25.8347 39.9397M36.3459 34.685L25.8347 39.9397M20.5781 47.8241V32.0562L25.8347 39.9397M20.5781 47.8241L25.8347 39.9397" stroke="#202020" stroke-width="1.5" stroke-linecap="round" stroke-linejoin="round"/>
<path d="M20.5781 47.8259H28.4616L36.345 42.5703" stroke="#202020" stroke-width="1.5" stroke-linecap="round" stroke-linejoin="round"/>
<path d="M31.0922 37.3175L28.4634 47.8287L25.8356 39.9444M17.4272 32.0619L14.7994 21.5497L9.54469 18.9219M17.4272 32.0619L9.54469 29.4331L4.28906 24.1775L9.54469 18.9219M17.4272 32.0619L9.54469 18.9219" stroke="#202020" stroke-width="1.5" stroke-linecap="round" stroke-linejoin="round"/>
<path d="M4.28406 24.1719L1.65625 34.685M1.65625 34.685V42.5684L4.28406 50.4519L9.53969 53.0797L17.4241 47.8241M1.65625 34.685L9.53969 29.4275L12.1675 39.9397M1.65625 34.685L12.1675 39.9397M17.4241 47.8241V32.0562L12.1675 39.9397M17.4241 47.8241L12.1675 39.9397" stroke="#202020" stroke-width="1.5" stroke-linecap="round" stroke-linejoin="round"/>
<path d="M17.4231 47.8259H9.54062L1.65625 42.5703" stroke="#202020" stroke-width="1.5" stroke-linecap="round" stroke-linejoin="round"/>
<path d="M6.91797 37.3125L9.54578 47.8237L12.1736 39.9394" stroke="#202020" stroke-width="1.5" stroke-linecap="round" stroke-linejoin="round"/>
</svg>
