<svg width="268" height="72" viewBox="0 0 268 72" fill="none" xmlns="http://www.w3.org/2000/svg">
<path d="M66.4461 47.672H77.4861V53H59.7261V19.496H66.4461V47.672ZM93.5653 53.432C91.0053 53.432 88.7013 52.872 86.6533 51.752C84.6053 50.6 82.9893 48.984 81.8053 46.904C80.6533 44.824 80.0773 42.424 80.0773 39.704C80.0773 36.984 80.6693 34.584 81.8533 32.504C83.0693 30.424 84.7173 28.824 86.7973 27.704C88.8773 26.552 91.1973 25.976 93.7573 25.976C96.3173 25.976 98.6373 26.552 100.717 27.704C102.797 28.824 104.429 30.424 105.613 32.504C106.829 34.584 107.437 36.984 107.437 39.704C107.437 42.424 106.813 44.824 105.565 46.904C104.349 48.984 102.685 50.6 100.573 51.752C98.4933 52.872 96.1573 53.432 93.5653 53.432ZM93.5653 47.576C94.7813 47.576 95.9173 47.288 96.9733 46.712C98.0613 46.104 98.9253 45.208 99.5653 44.024C100.205 42.84 100.525 41.4 100.525 39.704C100.525 37.176 99.8533 35.24 98.5093 33.896C97.1973 32.52 95.5813 31.832 93.6613 31.832C91.7413 31.832 90.1253 32.52 88.8133 33.896C87.5333 35.24 86.8933 37.176 86.8933 39.704C86.8933 42.232 87.5173 44.184 88.7653 45.56C90.0453 46.904 91.6453 47.576 93.5653 47.576ZM124.175 53.432C121.615 53.432 119.311 52.872 117.263 51.752C115.215 50.6 113.599 48.984 112.415 46.904C111.263 44.824 110.687 42.424 110.687 39.704C110.687 36.984 111.279 34.584 112.463 32.504C113.679 30.424 115.327 28.824 117.407 27.704C119.487 26.552 121.807 25.976 124.367 25.976C126.927 25.976 129.247 26.552 131.327 27.704C133.407 28.824 135.039 30.424 136.223 32.504C137.439 34.584 138.047 36.984 138.047 39.704C138.047 42.424 137.423 44.824 136.175 46.904C134.959 48.984 133.295 50.6 131.183 51.752C129.103 52.872 126.767 53.432 124.175 53.432ZM124.175 47.576C125.391 47.576 126.527 47.288 127.583 46.712C128.671 46.104 129.535 45.208 130.175 44.024C130.815 42.84 131.135 41.4 131.135 39.704C131.135 37.176 130.463 35.24 129.119 33.896C127.807 32.52 126.191 31.832 124.271 31.832C122.351 31.832 120.735 32.52 119.423 33.896C118.143 35.24 117.503 37.176 117.503 39.704C117.503 42.232 118.127 44.184 119.375 45.56C120.655 46.904 122.255 47.576 124.175 47.576ZM176 26.024C179.264 26.024 181.888 27.032 183.872 29.048C185.888 31.032 186.896 33.816 186.896 37.4V53H180.176V38.312C180.176 36.232 179.648 34.648 178.592 33.56C177.536 32.44 176.096 31.88 174.272 31.88C172.448 31.88 170.992 32.44 169.904 33.56C168.848 34.648 168.32 36.232 168.32 38.312V53H161.6V38.312C161.6 36.232 161.072 34.648 160.016 33.56C158.96 32.44 157.52 31.88 155.696 31.88C153.84 31.88 152.368 32.44 151.28 33.56C150.224 34.648 149.696 36.232 149.696 38.312V53H142.976V26.408H149.696V29.624C150.56 28.504 151.664 27.624 153.008 26.984C154.384 26.344 155.888 26.024 157.52 26.024C159.6 26.024 161.456 26.472 163.088 27.368C164.72 28.232 165.984 29.48 166.88 31.112C167.744 29.576 168.992 28.344 170.624 27.416C172.288 26.488 174.08 26.024 176 26.024ZM196.681 23.24C195.497 23.24 194.505 22.872 193.705 22.136C192.937 21.368 192.553 20.424 192.553 19.304C192.553 18.184 192.937 17.256 193.705 16.52C194.505 15.752 195.497 15.368 196.681 15.368C197.865 15.368 198.841 15.752 199.609 16.52C200.409 17.256 200.809 18.184 200.809 19.304C200.809 20.424 200.409 21.368 199.609 22.136C198.841 22.872 197.865 23.24 196.681 23.24ZM199.993 26.408V53H193.273V26.408H199.993ZM221.368 26.024C224.536 26.024 227.096 27.032 229.048 29.048C231 31.032 231.976 33.816 231.976 37.4V53H225.256V38.312C225.256 36.2 224.728 34.584 223.672 33.464C222.616 32.312 221.176 31.736 219.352 31.736C217.496 31.736 216.024 32.312 214.936 33.464C213.88 34.584 213.352 36.2 213.352 38.312V53H206.632V26.408H213.352V29.72C214.248 28.568 215.384 27.672 216.76 27.032C218.168 26.36 219.704 26.024 221.368 26.024ZM236.639 39.608C236.639 36.92 237.167 34.536 238.223 32.456C239.311 30.376 240.767 28.776 242.591 27.656C244.447 26.536 246.511 25.976 248.783 25.976C250.767 25.976 252.495 26.376 253.967 27.176C255.471 27.976 256.671 28.984 257.567 30.2V26.408H264.335V53H257.567V49.112C256.703 50.36 255.503 51.4 253.967 52.232C252.463 53.032 250.719 53.432 248.735 53.432C246.495 53.432 244.447 52.856 242.591 51.704C240.767 50.552 239.311 48.936 238.223 46.856C237.167 44.744 236.639 42.328 236.639 39.608ZM257.567 39.704C257.567 38.072 257.247 36.68 256.607 35.528C255.967 34.344 255.103 33.448 254.015 32.84C252.927 32.2 251.759 31.88 250.511 31.88C249.263 31.88 248.111 32.184 247.055 32.792C245.999 33.4 245.135 34.296 244.463 35.48C243.823 36.632 243.503 38.008 243.503 39.608C243.503 41.208 243.823 42.616 244.463 43.832C245.135 45.016 245.999 45.928 247.055 46.568C248.143 47.208 249.295 47.528 250.511 47.528C251.759 47.528 252.927 47.224 254.015 46.616C255.103 45.976 255.967 45.08 256.607 43.928C257.247 42.744 257.567 41.336 257.567 39.704Z" fill="#202020"/>
<path d="M33.506 25.2369C34.1336 25.0715 34.7859 24.9888 35.463 24.9888C36.5737 24.99 37.6713 25.2279 38.6828 25.6868C39.6942 26.1457 40.5962 26.815 41.3286 27.65C42.0609 28.4851 42.6068 29.4666 42.9298 30.5293C43.2528 31.592 43.3455 32.7113 43.2017 33.8126C43.058 34.914 42.681 35.972 42.096 36.9161C41.511 37.8603 40.7315 38.6688 39.8093 39.2879C38.8871 39.9069 37.8436 40.3222 36.7482 40.5061C35.6529 40.6899 34.5309 40.6381 33.4571 40.3541M33.506 25.2369L33.5099 24.9888C33.5129 23.0593 32.8017 21.1968 31.5134 19.7603C30.225 18.3238 28.4507 17.415 26.5321 17.2088C24.6136 17.0026 22.6866 17.5138 21.1224 18.6437C19.5583 19.7737 18.4677 21.4425 18.0607 23.3287M33.506 25.2369C33.4656 26.5234 33.108 27.7801 32.465 28.8951M33.4571 40.3541C33.4923 40.1197 33.5099 39.8808 33.5099 39.6373C33.5101 38.5116 33.1214 37.4205 32.4096 36.5485C31.6978 35.6765 30.7065 35.0773 29.6036 34.8521M33.4571 40.3541C33.2853 41.5122 32.703 42.5701 31.8164 43.3348C30.9298 44.0995 29.7979 44.5201 28.6271 44.5201H27.6505C25.5785 44.5201 23.5914 45.3432 22.1262 46.8083C20.6611 48.2735 19.838 50.2606 19.838 52.3326M18.0607 23.3287C16.7176 22.9473 15.2968 22.9328 13.9463 23.2867C12.5957 23.6407 11.3647 24.35 10.3812 25.3411C9.39776 26.3321 8.69786 27.5685 8.35432 28.9218C8.01079 30.275 8.03618 31.6956 8.42784 33.0357M18.0607 23.3287C20.0184 23.8831 21.6826 25.1794 22.6993 26.942M8.42784 33.0357C7.07637 33.4333 5.91525 34.3043 5.15349 35.4894C4.39173 36.6744 4.08226 38.0941 4.28172 39.4887C4.48118 40.8832 5.17622 42.1593 6.23963 43.0833C7.30303 44.0072 8.66364 44.5173 10.0724 44.5201C11.2846 44.5207 12.4672 44.1454 13.4571 43.4458C14.4471 42.7462 15.1956 41.7567 15.5997 40.6138M8.42784 33.0357C8.60493 33.6438 8.85167 34.2167 9.16417 34.7545" stroke="#202020" stroke-width="4.375" stroke-linecap="round" stroke-linejoin="round"/>
<path d="M23.428 34.25C22.4319 35.209 20.7269 35.375 19.2698 34.5566C17.8128 33.7363 17.0687 32.1934 17.3714 30.8438" stroke="#202020" stroke-width="4.375" stroke-linecap="round"/>
</svg>
