<svg width="100" height="100" viewBox="0 0 100 100" fill="none" xmlns="http://www.w3.org/2000/svg">
<rect width="100" height="100" fill="white"/>
<path d="M64.3859 35.4803C65.3273 35.2323 66.3058 35.1083 67.3215 35.1083C68.9875 35.11 70.634 35.4669 72.1511 36.1552C73.6683 36.8436 75.0213 37.8475 76.1198 39.1C77.2183 40.3526 78.0371 41.825 78.5216 43.419C79.0061 45.013 79.1452 46.692 78.9296 48.344C78.7139 49.996 78.1485 51.583 77.271 52.9992C76.3935 54.4154 75.2241 55.6282 73.8409 56.5568C72.4576 57.4854 70.8923 58.1083 69.2493 58.3841C67.6062 58.6599 65.9233 58.5822 64.3127 58.1561M64.3859 35.4803L64.3918 35.1083C64.3963 32.2139 63.3296 29.4202 61.397 27.2655C59.4645 25.1108 56.8029 23.7474 53.9251 23.4382C51.0473 23.129 48.1568 23.8957 45.8106 25.5906C43.4644 27.2855 41.8285 29.7888 41.2179 32.618M64.3859 35.4803C64.3254 37.4102 63.789 39.2951 62.8244 40.9676M64.3127 58.1561C64.3654 57.8046 64.3918 57.4462 64.3918 57.0809C64.3921 55.3925 63.8091 53.7557 62.7413 52.4478C61.6736 51.1398 60.1867 50.2409 58.5324 49.9032M64.3127 58.1561C64.0548 59.8933 63.1814 61.4801 61.8515 62.6271C60.5216 63.7742 58.8238 64.4052 57.0675 64.4051H55.6027C52.4947 64.4051 49.514 65.6398 47.3163 67.8375C45.1186 70.0352 43.884 73.0159 43.884 76.1239M41.2179 32.618C39.2033 32.046 37.0722 32.0243 35.0464 32.5551C33.0205 33.086 31.1739 34.15 29.6988 35.6366C28.2236 37.1231 27.1737 38.9778 26.6584 41.0077C26.1431 43.0375 26.1812 45.1684 26.7687 47.1786M41.2179 32.618C44.1546 33.4496 46.6509 35.3942 48.1759 38.038M26.7687 47.1786C24.7415 47.775 22.9998 49.0815 21.8572 50.859C20.7146 52.6366 20.2503 54.7662 20.5495 56.858C20.8487 58.9498 21.8913 60.8639 23.4864 62.2499C25.0815 63.6358 27.1224 64.401 29.2355 64.4051C31.0538 64.4061 32.8277 63.8431 34.3126 62.7937C35.7975 61.7442 36.9204 60.2601 37.5265 58.5458M26.7687 47.1786C27.0343 48.0907 27.4045 48.9501 27.8732 49.7567" stroke="#202020" stroke-width="6.5625" stroke-linecap="round" stroke-linejoin="round"/>
<path d="M49.2671 49C47.7729 50.4385 45.2153 50.6875 43.0297 49.46C40.8442 48.2295 39.728 45.915 40.1821 43.8906" stroke="#202020" stroke-width="6.5625" stroke-linecap="round"/>
</svg>
