<svg width="68" height="61" viewBox="0 0 68 61" fill="none" xmlns="http://www.w3.org/2000/svg">
<path d="M52.3603 15.9694C52.455 16.2171 52.455 16.2171 52.3004 16.7641C51.8897 17.663 51.0372 18.0408 50.2038 18.4969C50.0576 18.5854 49.9113 18.6739 49.7607 18.765C49.6364 18.8268 49.5122 18.8885 49.3842 18.9521C49.2712 18.9016 49.1583 18.8512 49.0419 18.7991C48.957 18.8771 48.8721 18.9551 48.7846 19.0355C48.1702 19.4994 47.4692 19.7417 46.7611 20.0341C46.5389 20.1397 46.3167 20.2453 46.0878 20.3541C45.9367 20.4166 45.7857 20.4792 45.6301 20.5437C43.9992 21.3363 43.4108 22.5734 42.6877 24.1543C42.4946 24.5739 42.2903 24.9865 42.0841 25.3998C41.2623 27.1053 40.9622 28.3869 41.2314 30.3007C41.2475 30.5863 41.2604 30.8721 41.2686 31.158C41.2788 31.3934 41.289 31.6289 41.2995 31.8714C41.3192 32.3252 41.3389 32.779 41.3586 33.2327C41.376 33.3745 41.3934 33.5162 41.4113 33.6622C41.3871 34.2653 41.1525 34.7164 40.901 35.2617C40.8086 35.4655 40.7162 35.6694 40.6209 35.8794C40.3238 36.467 40.3238 36.467 39.9441 36.9503C39.6259 37.4125 39.6259 37.4125 39.8466 37.9384C39.9466 38.1218 40.0465 38.3052 40.1494 38.4941C40.713 39.6364 40.9127 40.6304 40.9788 41.8941C40.991 42.0422 41.0031 42.1904 41.0156 42.343C41.0151 42.7318 41.0151 42.7318 40.7856 43.2454C39.5316 43.0492 38.3334 42.733 37.1131 42.387C35.8318 42.0266 34.5519 41.6752 33.2541 41.3786C22.0109 38.8003 22.0109 38.8003 19.753 35.565C19.6506 35.3583 19.5481 35.1515 19.4426 34.9385C21.2865 31.4846 21.2865 31.4846 22.6834 31.0368C23.2867 30.9941 23.8723 31.0076 24.4767 31.0272C24.9474 30.9878 25.4176 30.9412 25.887 30.8874C26.1004 30.8653 26.3139 30.8431 26.5339 30.8203C27.0703 30.767 27.0703 30.767 27.5618 30.5577C27.7313 30.6335 27.9007 30.7092 28.0753 30.7872C28.1258 30.6743 28.1763 30.5613 28.2283 30.4449C28.5937 30.3346 28.5937 30.3346 29.064 30.2408C29.6706 30.1148 30.2618 29.976 30.8545 29.7959C31.4665 29.633 31.4665 29.633 31.8088 29.786C32.048 29.5541 32.2872 29.3221 32.5337 29.0831C31.3423 28.6908 30.1854 28.7703 28.9477 28.8137C27.4494 28.8556 26.0796 28.7433 24.6154 28.4193C25.1386 27.4289 25.6703 26.7292 26.5242 25.9865C26.7093 25.7894 26.8916 25.5897 27.0717 25.388C27.7326 24.661 28.4243 23.971 29.1297 23.2874C29.2569 23.1638 29.3841 23.0402 29.5152 22.9128C30.2044 22.2493 30.9025 21.6199 31.6546 21.0272C32.7523 20.1609 33.6557 19.1319 34.5747 18.0836C34.6876 18.1341 34.8006 18.1846 34.917 18.2366C35.0068 18.1542 35.0966 18.0717 35.1891 17.9868C35.5965 17.6816 35.9088 17.5741 36.3988 17.4484C36.9649 17.3017 37.2864 17.1733 37.7946 16.8529C37.9076 16.9034 38.0206 16.9538 38.137 17.0059C38.2284 16.9292 38.3199 16.8525 38.4141 16.7735C38.7798 16.4786 39.152 16.205 39.5385 15.9379C39.6649 15.8494 39.7913 15.7608 39.9216 15.6695C40.031 15.6094 40.1405 15.5492 40.2533 15.4873C40.3663 15.5378 40.4793 15.5883 40.5957 15.6403C40.6882 15.5376 40.7807 15.4349 40.8759 15.3291C41.5963 14.6945 42.3473 14.3417 43.3021 14.18C44.4684 14.3948 45.5795 14.7755 46.6827 15.2032C47.7221 15.5855 48.563 15.6545 49.6578 15.583C51.6671 15.5199 51.6671 15.5199 52.3603 15.9694Z" fill="url(#paint0_linear_937_34)"/>
<path d="M56.5201 48.0185C56.3714 48.581 56.3714 48.581 55.9846 49.2167C54.2152 50.1496 51.8396 50.1634 49.8842 50.2993C49.3625 50.3416 48.8514 50.408 48.3335 50.4823C46.7881 50.6795 45.2278 50.663 43.6722 50.6835C43.2375 50.6934 42.8055 50.7161 42.3715 50.7418C41.4258 50.7858 40.4993 50.7046 39.558 50.6163C39.3916 50.6016 39.2251 50.5869 39.0536 50.5717C38.0999 50.4867 37.1471 50.3935 36.1947 50.2951C35.8079 50.2603 35.4229 50.2415 35.035 50.2249C33.982 50.1645 32.9555 49.9469 31.9197 49.7567C31.6323 49.7051 31.6323 49.7051 31.3391 49.6524C28.0666 49.0562 24.9537 48.1892 21.8162 47.0894C21.6291 47.0257 21.442 46.9621 21.2492 46.8965C18.8604 46.0698 16.634 44.9978 14.4425 43.7424C14.333 43.68 14.2236 43.6175 14.1108 43.5531C12.2413 42.4836 10.4518 41.3421 8.75202 40.0182C8.65093 39.9399 8.54984 39.8616 8.44568 39.781C7.21139 38.8145 6.17033 37.7599 5.16109 36.5649C4.99065 36.387 4.82022 36.2092 4.64462 36.026C3.83892 35.1171 3.14556 34.095 2.65558 32.9806C2.70607 32.8676 2.75657 32.7546 2.80859 32.6382C2.69562 32.5877 2.58264 32.5372 2.46623 32.4852C2.63697 31.9515 2.80771 31.4179 2.98363 30.8681C3.86555 30.8362 4.50866 31.096 5.28526 31.4748C5.54249 31.5956 5.79981 31.7163 6.05722 31.8368C6.19174 31.9003 6.32625 31.9639 6.46485 32.0293C10.325 33.843 14.2099 35.0595 18.3937 35.9071C18.3648 36.1992 18.3648 36.1992 18.3354 36.4972C18.7105 36.8885 18.7105 36.8885 19.2094 37.2986C19.4651 37.5653 19.4651 37.5653 19.7259 37.8375C20.9618 39.0577 22.4584 39.8521 24.0347 40.5462C24.2186 40.6276 24.4026 40.709 24.5921 40.7928C27.919 42.2255 31.4069 43.155 34.9398 43.9184C35.1115 43.9565 35.2831 43.9945 35.4599 44.0337C37.9319 44.5815 40.4067 45.0222 42.9111 45.3918C43.5401 45.4867 44.1682 45.5869 44.7962 45.6883C45.0183 45.7241 45.2403 45.7599 45.4691 45.7968C45.8985 45.8662 46.3278 45.936 46.7571 46.0061C47.9168 46.1923 49.0711 46.341 50.2409 46.4443C51.421 46.5722 52.5918 46.7549 53.7619 46.9526C53.8909 46.9734 54.0199 46.9943 54.1528 47.0158C55.9549 47.3292 55.9549 47.3292 56.5201 48.0185Z" fill="url(#paint1_linear_937_34)"/>
<defs>
<linearGradient id="paint0_linear_937_34" x1="42.4566" y1="11.4766" x2="29.0908" y2="41.3815" gradientUnits="userSpaceOnUse">
<stop stop-color="#4B0082"/>
<stop offset="1" stop-color="#800080"/>
</linearGradient>
<linearGradient id="paint1_linear_937_34" x1="31.1659" y1="36.3657" x2="25.538" y2="48.9576" gradientUnits="userSpaceOnUse">
<stop stop-color="#4B0082"/>
<stop offset="1" stop-color="#800080"/>
</linearGradient>
</defs>
</svg>
